<?xml version="1.0" standalone="no"?><!DOCTYPE svg PUBLIC "-//W3C//DTD SVG 1.1//EN" "http://www.w3.org/Graphics/SVG/1.1/DTD/svg11.dtd"><svg t="1564134886685" class="icon" viewBox="0 0 1025 1024" version="1.1" xmlns="http://www.w3.org/2000/svg" p-id="5139" xmlns:xlink="http://www.w3.org/1999/xlink" width="64.0625" height="64"><defs><style type="text/css"></style></defs><path d="M896.364059 512.367385c0-23.94242-2.522571-41.305689-2.522571-41.305689-2.293339-15.788325 7.137903-35.230029 20.957293-43.201967l52.261731-30.146c13.820413-7.972961 18.594366-25.79674 10.610148-39.60999L878.54335 186.602696c-7.984218-13.81325-25.825394-18.594366-39.64683-10.625498l-52.19419 30.093809c-13.821436 7.969891-35.43777 6.479886-48.035274-3.310554 0 0-13.936052-10.830169-34.201557-22.519956-20.391377-11.752212-37.433313-18.691584-37.433313-18.691584-14.776227-6.016306-26.86717-23.992565-26.86717-39.947697L640.165016 61.284655c0-15.955132-13.05392-29.009052-29.009052-29.009052L412.974002 32.275602c-15.955132 0-29.009052 13.05392-29.009052 29.009052l0 60.317584c0 15.954109-12.089919 33.930368-26.86717 39.947697 0 0-17.041936 6.938349-37.370888 18.62916-20.326906 11.752212-34.263982 22.582381-34.263982 22.582381-12.597504 9.79044-34.210767 11.275329-48.029134 3.299297l-52.20647-30.13372c-13.817343-7.976031-31.652379-3.197985-39.632504 10.618334L46.514568 358.097599c-7.979101 13.815296-3.202079 31.645216 10.615264 39.621247l52.207493 30.13372c13.817343 7.976031 23.246539 27.419782 20.953199 43.208107 0 0-2.522571 17.364292-2.522571 41.305689 0 24.003822 2.522571 41.369137 2.522571 41.369137 2.293339 15.789349-7.138926 35.227982-20.95934 43.19685l-52.19419 30.093809c-13.821436 7.968868-18.598459 25.792647-10.616288 39.60692l99.134473 171.55835c7.983195 13.81325 25.819254 18.590272 39.63762 10.615264l52.207493-30.13372c13.817343-7.975008 35.415256-6.470675 47.99434 3.344325 0 0 12.781708 9.972597 32.421942 21.475111 20.829373 12.189185 39.190414 19.677075 39.190414 19.677075 14.77418 6.025516 26.86103 24.007915 26.86103 39.963047l0 60.316561c0 15.955132 13.05392 29.009052 29.009052 29.009052l198.180938 0c15.955132 0 29.009052-13.05392 29.009052-29.009052l0-60.316561c0-15.955132 12.090943-33.928321 26.869216-39.941557 0 0 16.914016-6.883088 37.11812-18.51045 20.390354-11.752212 34.460466-22.696997 34.460466-22.696997 12.59341-9.795557 34.204627-11.287609 48.02504-3.315671l52.260708 30.146c13.820413 7.971938 31.657496 3.190822 39.636597-10.625498l99.081259-171.551187c7.980125-13.81632 3.200032-31.641122-10.621405-39.60999L914.800827 596.932349c-13.821436-7.968868-23.253702-27.407501-20.95934-43.19685C893.841488 553.735499 896.364059 536.371206 896.364059 512.367385zM512.064471 672.396614c-88.443481 0-160.124402-71.638963-160.124402-160.030253s71.680921-160.030253 160.124402-160.030253c88.444504 0 160.125425 71.638963 160.125425 160.030253S600.508975 672.396614 512.064471 672.396614z" p-id="5140" fill="#ffffff"></path></svg>